<svg xmlns="http://www.w3.org/2000/svg" xmlns:v="http://vecta.io" xmlns:xlink="http://www.w3.org/1999/xlink" viewBox="0 0 85 85" stroke="#000" stroke-linecap="round" stroke-linejoin="round" fill="#fff" fill-rule="evenodd" font-family="Roboto" font-size="14px" text-anchor="middle" width="300" height="300"><defs><style type="text/css"></style></defs><use xlink:href="#FEf755HnCneDvvbjiR0_-F.sym" x="2.5" y="2.5"><title>Amazon ECS</title></use><symbol id="FEf755HnCneDvvbjiR0_-F.sym" overflow="visible" v:tags="aws, amazon, compute, ecs"><title>Amazon ECS</title><desc>Amazon Elastic Container Service, a container orchestration service.</desc><g id="j3iljn3o8vg" class="Group.cls" transform="translate(0 0)" v:size="85,85,2.5,2.5"><g id="j3iljmzg8u8" transform="translate(0 5.3451)"><path d="M 4.2824 0 L 0 2.2818 L 0 67.028 L 4.2824 69.3098 L 21.1529 36.0039 L 4.2824 0 Z" fill="#9d5025" stroke="none"></path></g><g id="j3iljmzn8u9" transform="translate(17.3176 7.4629)"><path d="M 0 9.5683 L 6.3059 0 L 34.5647 13.4637 L 27.9765 14.5857 L 0 9.5683 Z" fill="#9d5025" stroke="none"></path></g><g id="j3iljmzw8ua" transform="translate(12.4236 57.8002)"><path d="M 0 5.862 L 6.9411 16.0857 L 39.4587 1.0463 L 33.1764 0 L 0 5.862 Z" fill="#9d5025" stroke="none"></path></g><g id="j3iljn038ub" transform="translate(4.2824 5.3451)"><path d="M 9.9764 66.8012 L 0 69.3098 L 0 0 L 9.9764 2.4329 L 9.9764 66.8012 Z" fill="#f58536" stroke="none"></path></g><g id="j3iljn098uc" transform="translate(9.0118 0)"><path d="M 0 2.8112 L 5.247 0 L 15.1294 44.4879 L 5.247 80 L 0 77.1888 L 0 2.8112 Z" fill="#9d5025" stroke="none"></path></g><g id="j3iljn0d8ud" transform="translate(45.247 20.9266)"><path d="M 0 36.8233 L 6.6353 37.9199 L 12.7059 19.8047 L 6.6353 0 L 0 1.122 L 0 36.8233 Z" fill="#9d5025" stroke="none"></path></g><g id="j3iljn0j8ue" transform="translate(14.2588 0)"><path d="M 10.2118 76.9115 L 0 80 L 0 0 L 10.2118 3.1011 L 10.2118 76.9115 Z" fill="#f58536" stroke="none"></path></g><g id="j3iljn0o8uf" transform="translate(14.2588 57.4473)"><path d="M 44.5765 0 L 0 8.8748 L 0 22.5527 L 44.5765 9.0639 L 44.5765 0 Z" fill="#f58536" stroke="none"></path></g><g id="j3iljn0y8ug" transform="translate(14.2588 0)"><path d="M 44.6588 22.3511 L 0 13.2619 L 0 0 L 44.6588 13.5771 L 44.6588 22.3511 Z" fill="#f58536" stroke="none"></path></g><g id="j3iljn118uh" transform="translate(51.8823 11.4341)"><path d="M 0 0 L 7.1647 2.1178 L 7.1647 55.0772 L 0 57.1823 L 0 0 Z" fill="#f58536" stroke="none"></path></g><g id="j3iljn1b8ui" transform="translate(54.047 16.7413)"><path d="M 25.953 16.2621 L 6.7765 17.2328 L 0 16.7413 L 19.3884 0 L 25.953 16.2621 Z" fill="#6b3a19" stroke="none"></path></g><g id="j3iljn1f8uj" transform="translate(54.047 16.7413)"><path d="M 0 16.7413 L 19.3884 15.5688 L 19.3884 0 L 0 3.3658 L 0 16.7413 Z" fill="#9d5025" stroke="none"></path></g><g id="j3iljn1i8uk" transform="translate(35.8001 10.9549)"><path d="M 0 21.2166 L 19.647 0 L 29.6352 20.498 L 9.2706 21.8848 L 0 21.2166 Z" fill="#6b3a19" stroke="none"></path></g><g id="j3iljn1r8ul" transform="translate(35.8001 10.9549)"><path d="M 0 21.2166 L 19.647 19.4265 L 19.647 0 L 0 4.9291 L 0 21.2166 Z" fill="#9d5025" stroke="none"></path></g><g id="j3iljn1w8um" transform="translate(54.047 46.7949)"><path d="M 0 0 L 25.953 0.479 L 19.3884 16.7411 L 0 13.3753 L 0 0 Z" fill="#9d5025" stroke="none"></path></g><g id="j3iljn1z8un" transform="translate(35.8001 48.1058)"><path d="M 0 0 L 29.6352 0.7313 L 19.647 21.2166 L 0 16.3001 L 0 0 Z" fill="#9d5025" stroke="none"></path></g><g id="j3iljn268uo" transform="translate(35.8001 47.4378)"><path d="M 0 0.668 L 19.647 2.4708 L 29.6352 1.3993 L 9.2706 0 L 0 0.668 Z" fill="#fbbf93" stroke="none"></path></g><g id="j3iljn2b8up" transform="translate(54.047 46.3158)"><path d="M 25.953 0.9581 L 6.7765 0 L 0 0.479 L 19.3884 1.6641 L 25.953 0.9581 Z" fill="#fbbf93" stroke="none"></path></g><g id="j3iljn2e8uq" transform="translate(73.4353 16.7413)"><path d="M 0 15.5688 L 6.5647 16.2621 L 6.5647 2.1052 L 0 0 L 0 15.5688 Z" fill="#f58536" stroke="none"></path></g><g id="j3iljn2l8ur" transform="translate(55.4471 10.9549)"><path d="M 9.9882 20.498 L 0 19.4265 L 0 0 L 9.9882 3.2147 L 9.9882 20.498 Z" fill="#f58536" stroke="none"></path></g><g id="j3iljn2q8us" transform="translate(73.4353 47.2739)"><path d="M 0 0.706 L 6.5647 0 L 6.5647 14.1569 L 0 16.2621 L 0 0.706 Z" fill="#f58536" stroke="none"></path></g><g id="j3iljn2t8ut" transform="translate(55.4471 48.8371)"><path d="M 9.9882 0 L 0 1.0715 L 0 20.4854 L 9.9882 17.2833 L 9.9882 0 Z" fill="#f58536" stroke="none"></path></g></g></symbol></svg>